<?xml version="1.0" encoding="UTF-8" standalone="no"?>
<!-- Created with Inkscape (http://www.inkscape.org/) -->

<svg
   version="1.1"
   id="svg2"
   width="445.50586"
   height="109.2476"
   viewBox="0 0 445.50586 109.2476"
   xmlns="http://www.w3.org/2000/svg"
   xmlns:svg="http://www.w3.org/2000/svg">
  <defs
     id="defs6">
    <clipPath
       clipPathUnits="userSpaceOnUse"
       id="clipPath22">
      <path
         d="M 0,500 H 500 V 0 H 0 Z"
         id="path20" />
    </clipPath>
  </defs>
  <g
     id="g8"
     transform="matrix(1.3333333,0,0,-1.3333333,-110.58,387.95732)">
    <g
       id="g12"
       transform="translate(214.6533,280.5404)">
      <path
         d="M 0,0 H -8.258 V -37.419 H -1.992 0 17.46 v 7.217 H 0 Z"
         style="fill:#ffffff;fill-opacity:1;fill-rule:nonzero;stroke:none"
         id="path14" />
    </g>
    <g
       id="g16">
      <g
         id="g18"
         clip-path="url(#clipPath22)">
        <g
           id="g24"
           transform="translate(185.5069,260.9919)">
          <path
             d="M 0,0 H -7.434 V 12.548 H 0 c 3.46,0 6.274,-2.814 6.274,-6.274 C 6.274,2.815 3.46,0 0,0 m 2.001,19.548 h -9.435 v 0 h -8.258 v -37.419 h 8.258 V -7 h 9.435 c 7.331,0 13.274,5.943 13.274,13.274 0,7.331 -5.943,13.274 -13.274,13.274"
             style="fill:#ffffff;fill-opacity:1;fill-rule:nonzero;stroke:none"
             id="path26" />
        </g>
        <g
           id="g28"
           transform="translate(319.5565,280.5404)">
          <path
             d="M 0,0 H -8.258 V -37.419 H -1.992 0 17.46 v 7.217 H 0 Z"
             style="fill:#ffffff;fill-opacity:1;fill-rule:nonzero;stroke:none"
             id="path30" />
        </g>
        <g
           id="g32"
           transform="translate(260.1208,253.9919)">
          <path
             d="m 0,0 c -1.867,-4.863 -7.576,-4.524 -7.576,-4.524 0,0 -5.71,-0.339 -7.577,4.524 v 26.548 h -8.573 V 0 c 0,0 1.382,-11.492 16.15,-11.492 C 7.191,-11.492 8.573,0 8.573,0 V 26.548 H 0 Z"
             style="fill:#ffffff;fill-opacity:1;fill-rule:nonzero;stroke:none"
             id="path34" />
        </g>
        <g
           id="g36"
           transform="translate(298.2097,263.242)">
          <path
             d="m 0,0 c -3.581,1.548 -13.548,3.387 -13.548,6.677 0,3.291 2.806,3.871 8.419,3.871 5.613,0 9.581,-2.419 9.581,-2.419 v 7.355 c -3.871,2.322 -12.297,2.226 -12.297,2.226 -13.36,0 -14.123,-7.258 -14.123,-10.258 0,-3 -0.677,-8.226 8.323,-11.42 9,-3.193 11.129,-3.484 11.129,-6.097 0,-2.612 -2.516,-4.064 -8.032,-3.774 -5.517,0.291 -11.42,2.904 -11.42,2.904 v -7.452 c 0,0 6.194,-2.355 13.452,-2.355 7.258,0 14.806,3.129 14.806,9.903 C 6.29,-4.065 3.581,-1.548 0,0"
             style="fill:#ffffff;fill-opacity:1;fill-rule:nonzero;stroke:none"
             id="path38" />
        </g>
        <g
           id="g40"
           transform="translate(354.3704,257.7904)">
          <path
             d="M 0,0 5.888,15.774 11.775,0 Z M 5.888,22.75 H 0.585 l -14.488,-37.419 h 8.428 l 2.91,7.798 H 14.34 l 2.911,-7.798 h 8.427 L 11.19,22.75 Z"
             style="fill:#ffffff;fill-opacity:1;fill-rule:nonzero;stroke:none"
             id="path42" />
        </g>
        <g
           id="g44"
           transform="translate(401.2944,249.492)">
          <path
             d="m 0,0 h -7.512 v 9.121 h 9.839 c 3.71,0 5.032,-2.054 5.032,-5.073 C 7.359,0.896 3.714,0 0,0 m -1.714,23.809 c 3.375,0 7.452,-0.609 7.452,-4.15 0,-3.526 -2.802,-4.151 -6.246,-4.151 h -7.004 v 8.301 z M 7.738,12.121 H 5.411 c 5.107,0 9.246,4.237 9.246,9.464 0,5.226 -5.345,9.463 -10.451,9.463 H -7.512 v 0 h -8.258 v 0 -18.927 -18.492 h 8.258 12.923 c 5.107,0 10.359,4.14 10.359,9.246 0,5.106 -2.926,9.246 -8.032,9.246"
             style="fill:#ffffff;fill-opacity:1;fill-rule:nonzero;stroke:none"
             id="path46" />
        </g>
        <g
           id="g48"
           transform="translate(280.9033,224.3371)">
          <path
             d="m 0,0 h 5.387 c 1.484,0 2.69,-1.207 2.69,-2.69 0,-1.484 -1.206,-2.691 -2.69,-2.691 H 0 Z m 11.937,-2.69 v 0 c 0,3.143 -2.548,5.692 -5.692,5.692 H 0 V 3.018 H -3.548 V -14.66 H 0 v 6.278 h 4.071 l 4.381,-6.278 h 4.516 l -5.025,6.535 c 2.314,0.723 3.994,2.882 3.994,5.435"
             style="fill:#39a6b4;fill-opacity:1;fill-rule:nonzero;stroke:none"
             id="path50" />
        </g>
        <g
           id="g52"
           transform="translate(238,227.3549)">
          <path
             d="m 0,0 h -4.452 l -8.129,-7.614 V 0 h -3.548 v -17.677 h 3.548 v 7.823 l 8.129,-7.823 h 4.968 l -9.29,9.096 z"
             style="fill:#39a6b4;fill-opacity:1;fill-rule:nonzero;stroke:none"
             id="path54" />
        </g>
        <g
           id="g56"
           transform="translate(256.2581,212.0323)">
          <path
             d="m 0,0 c -3.575,0 -6.484,2.909 -6.484,6.484 0,3.575 2.909,6.484 6.484,6.484 3.575,0 6.484,-2.909 6.484,-6.484 C 6.484,2.909 3.575,0 0,0 m 0,15.968 c -5.238,0 -9.484,-4.246 -9.484,-9.484 C -9.484,1.246 -5.238,-3 0,-3 c 5.238,0 9.484,4.246 9.484,9.484 0,5.238 -4.246,9.484 -9.484,9.484"
             style="fill:#39a6b4;fill-opacity:1;fill-rule:nonzero;stroke:none"
             id="path58" />
        </g>
        <g
           id="g60"
           transform="translate(306.6129,227.3549)">
          <path
             d="M 0,0 H -2.21 V -17.677 H 0 1.339 11.226 v 3.017 H 1.339 v 4.312 h 9.064 V -7.33 H 1.339 v 4.312 h 9.887 V 0 H 1.339 Z"
             style="fill:#39a6b4;fill-opacity:1;fill-rule:nonzero;stroke:none"
             id="path62" />
        </g>
        <g
           id="g64"
           transform="translate(334.0675,216.7259)">
          <path
             d="M 0,0 3.191,7.611 6.381,0 Z M 9.336,-7.048 H 13.4 L 5.513,10.629 H 3.191 0.868 L -7.019,-7.048 h 4.064 l 1.616,3.854 H 7.72 Z"
             style="fill:#39a6b4;fill-opacity:1;fill-rule:nonzero;stroke:none"
             id="path66" />
        </g>
        <path
           d="m 132.379,267.266 h -23.702 v 23.702 h 23.702 z"
           style="fill:#39a6b4;fill-opacity:1;fill-rule:nonzero;stroke:none"
           id="path68" />
        <path
           d="m 132.379,216.149 h -23.702 v 23.702 h 23.702 z"
           style="fill:#39a6b4;fill-opacity:1;fill-rule:nonzero;stroke:none"
           id="path70" />
        <path
           d="M 106.637,241.331 H 82.935 v 23.702 h 23.702 z"
           style="fill:#39a6b4;fill-opacity:1;fill-rule:nonzero;stroke:none"
           id="path72" />
        <path
           d="m 158.121,241.331 h -23.702 v 23.702 h 23.702 z"
           style="fill:#39a6b4;fill-opacity:1;fill-rule:nonzero;stroke:none"
           id="path74" />
      </g>
    </g>
  </g>
</svg>
